<svg xmlns="http://www.w3.org/2000/svg" viewBox="0 0 281.2538833981783 247.2" height="247.2" width="281.2538833981783"><g><svg viewBox="0 0 395.52 347.63091203822034" height="247.2" width="281.2538833981783"><g transform="matrix(1,0,0,1,0,255.20120094670222)"><svg viewBox="0 0 395.52 92.42971109151816" height="92.42971109151816" width="395.52"><g id="textblocktransform"><svg viewBox="0 0 395.52 92.42971109151816" height="92.42971109151816" width="395.52" id="textblock"><g><rect width="75.54432" height="5.273990253597816" y="79.72211732159893" fill="#000000" data-fill-palette-color="tertiary"/><rect width="75.54432" height="5.273990253597816" y="79.72211732159893" x="319.97568" fill="#000000" data-fill-palette-color="tertiary"/></g><g><svg viewBox="0 0 395.52 58.482256596906275" height="58.482256596906275" width="395.52"><g transform="matrix(1,0,0,1,0,0)"><svg width="395.52" viewBox="4.69 -36.74 321.94 47.6" height="58.482256596906275" data-palette-color="#2d2e2e"><path d="M8.69 0L4.69 0 4.69-33.84 24-33.84 24-30.44 8.69-30.44 8.69-18.7 21.68-18.7 21.68-15.28 8.69-15.28 8.69 0ZM35.37 0.61L35.37 0.61Q32.25 0.61 30.15-1.21 28.05-3.03 28.05-6.42L28.05-6.42Q28.05-10.52 31.77-12.72 35.5-14.92 43.53-15.82L43.53-15.82Q43.53-17.48 43.08-18.97 42.62-20.46 41.49-21.41 40.35-22.36 38.25-22.36L38.25-22.36Q36.03-22.36 34.09-21.51 32.15-20.65 30.69-19.73L30.69-19.73 29.15-22.36Q30.81-23.51 33.33-24.56 35.86-25.61 38.89-25.61L38.89-25.61Q43.45-25.61 45.47-22.8 47.48-20 47.48-15.41L47.48-15.41 47.48 0 44.19 0 43.87-3.03 43.72-3.03Q41.92-1.54 39.8-0.46 37.69 0.61 35.37 0.61ZM36.45-2.56L36.45-2.56Q38.33-2.56 39.98-3.44 41.62-4.32 43.53-5.96L43.53-5.96 43.53-13.18Q39.21-12.65 36.67-11.77 34.13-10.89 33.03-9.64 31.93-8.4 31.93-6.74L31.93-6.74Q31.93-4.52 33.25-3.54 34.57-2.56 36.45-2.56ZM61.96 0.61L61.96 0.61Q59.17 0.61 56.78-0.33 54.39-1.27 52.68-2.93L52.68-2.93 54.54-5.25Q56.12-3.93 57.92-3.2 59.71-2.47 62.1-2.47L62.1-2.47Q64.62-2.47 65.89-3.67 67.16-4.88 67.16-6.54L67.16-6.54Q67.16-7.86 66.33-8.73 65.5-9.59 64.19-10.21 62.89-10.82 61.45-11.33L61.45-11.33Q59.59-12.01 57.91-12.92 56.22-13.82 55.15-15.19 54.07-16.55 54.07-18.6L54.07-18.6Q54.07-21.53 56.29-23.57 58.52-25.61 62.57-25.61L62.57-25.61Q64.89-25.61 66.85-24.82 68.82-24.02 70.26-22.83L70.26-22.83 68.45-20.51Q67.13-21.46 65.73-21.98 64.33-22.51 62.62-22.51L62.62-22.51Q60.15-22.51 59.02-21.37 57.88-20.24 57.88-18.8L57.88-18.8Q57.88-17.02 59.39-16.11 60.91-15.21 63.18-14.36L63.18-14.36Q65.16-13.67 66.94-12.78 68.72-11.89 69.84-10.47 70.97-9.06 70.97-6.74L70.97-6.74Q70.97-3.71 68.65-1.55 66.33 0.61 61.96 0.61ZM80.9 0L76.95 0 76.95-36.74 80.9-36.74 80.9-26.64 80.75-21.44Q82.56-23.17 84.56-24.39 86.56-25.61 89.15-25.61L89.15-25.61Q93.06-25.61 94.89-23.13 96.72-20.65 96.72-15.87L96.72-15.87 96.72 0 92.81 0 92.81-15.36Q92.81-18.92 91.67-20.56 90.52-22.19 87.91-22.19L87.91-22.19Q85.98-22.19 84.42-21.17 82.85-20.14 80.9-18.19L80.9-18.19 80.9 0ZM108.83 0L104.87 0 104.87-24.98 108.83-24.98 108.83 0ZM106.92-30.25L106.92-30.25Q105.73-30.25 104.99-30.99 104.26-31.74 104.26-32.98L104.26-32.98Q104.26-34.13 104.99-34.86 105.73-35.6 106.92-35.6L106.92-35.6Q108.12-35.6 108.85-34.86 109.58-34.13 109.58-32.98L109.58-32.98Q109.58-31.74 108.85-30.99 108.12-30.25 106.92-30.25ZM127.06 0.61L127.06 0.61Q124.04 0.61 121.41-0.93 118.79-2.47 117.19-5.38 115.59-8.3 115.59-12.45L115.59-12.45Q115.59-16.63 117.19-19.57 118.79-22.51 121.41-24.06 124.04-25.61 127.06-25.61L127.06-25.61Q130.14-25.61 132.78-24.06 135.41-22.51 137.01-19.57 138.61-16.63 138.61-12.45L138.61-12.45Q138.61-8.3 137.01-5.38 135.41-2.47 132.78-0.93 130.14 0.61 127.06 0.61ZM127.06-2.66L127.06-2.66Q130.41-2.66 132.48-5.36 134.56-8.06 134.56-12.45L134.56-12.45Q134.56-16.87 132.48-19.59 130.41-22.31 127.06-22.31L127.06-22.31Q124.89-22.31 123.21-21.07 121.52-19.82 120.58-17.61 119.64-15.41 119.64-12.45L119.64-12.45Q119.64-8.06 121.72-5.36 123.79-2.66 127.06-2.66ZM149.28 0L145.32 0 145.32-24.98 148.62-24.98 148.98-21.39 149.08-21.39Q150.89-23.17 152.91-24.39 154.94-25.61 157.53-25.61L157.53-25.61Q161.44-25.61 163.27-23.13 165.1-20.65 165.1-15.87L165.1-15.87 165.1 0 161.19 0 161.19-15.36Q161.19-18.92 160.04-20.56 158.9-22.19 156.28-22.19L156.28-22.19Q154.36-22.19 152.79-21.17 151.23-20.14 149.28-18.19L149.28-18.19 149.28 0ZM193.88 0L189.87 0 189.87-33.84 209.18-33.84 209.18-30.44 193.88-30.44 193.88-18.7 206.86-18.7 206.86-15.28 193.88-15.28 193.88 0ZM218.75 0L214.8 0 214.8-24.98 218.09-24.98 218.46-20.46 218.56-20.46Q219.87-22.8 221.71-24.21 223.54-25.61 225.66-25.61L225.66-25.61Q227.27-25.61 228.3-25.1L228.3-25.1 227.42-21.73Q226.88-21.9 226.41-21.97 225.93-22.05 225.15-22.05L225.15-22.05Q223.56-22.05 221.8-20.74 220.05-19.43 218.75-16.16L218.75-16.16 218.75 0ZM242.5 0.61L242.5 0.61Q239.21 0.61 236.51-0.95 233.81-2.51 232.21-5.44 230.61-8.37 230.61-12.45L230.61-12.45Q230.61-16.53 232.21-19.48 233.81-22.44 236.38-24.02 238.94-25.61 241.8-25.61L241.8-25.61Q246.51-25.61 249.1-22.46 251.68-19.31 251.68-13.89L251.68-13.89Q251.68-12.52 251.54-11.57L251.54-11.57 234.52-11.57Q234.72-7.5 237.01-5 239.31-2.51 242.97-2.51L242.97-2.51Q244.85-2.51 246.41-3.02 247.97-3.52 249.32-4.42L249.32-4.42 250.71-1.95Q249.07-0.83 247.09-0.11 245.12 0.61 242.5 0.61ZM234.47-14.43L234.47-14.43 248.19-14.43Q248.19-18.36 246.53-20.41 244.87-22.46 241.85-22.46L241.85-22.46Q239.14-22.46 237-20.36 234.86-18.26 234.47-14.43ZM261.86 0L257.91 0 257.91-24.98 261.2-24.98 261.57-21.39 261.67-21.39Q263.47-23.17 265.5-24.39 267.53-25.61 270.11-25.61L270.11-25.61Q274.02-25.61 275.85-23.13 277.68-20.65 277.68-15.87L277.68-15.87 277.68 0 273.78 0 273.78-15.36Q273.78-18.92 272.63-20.56 271.48-22.19 268.87-22.19L268.87-22.19Q266.94-22.19 265.38-21.17 263.82-20.14 261.86-18.19L261.86-18.19 261.86 0ZM302.05 0L283.2 0 283.2-2.1 296.65-21.73 284.69-21.73 284.69-24.98 301.65-24.98 301.65-22.88 288.25-3.22 302.05-3.22 302.05 0ZM307.9 10.86L307.9 10.86Q307.07 10.86 306.34 10.71 305.61 10.55 305.02 10.3L305.02 10.3 305.85 7.2Q306.32 7.35 306.8 7.46 307.29 7.57 307.71 7.57L307.71 7.57Q309.88 7.57 311.27 5.98 312.66 4.39 313.47 2L313.47 2 314.1 0.1 304-24.98 308.07-24.98 313.32-10.86Q313.91-9.23 314.54-7.39 315.18-5.54 315.79-3.81L315.79-3.81 316.01-3.81Q316.54-5.54 317.08-7.37 317.62-9.2 318.11-10.86L318.11-10.86 322.75-24.98 326.63-24.98 317.13 2.2Q316.28 4.61 315.07 6.58 313.86 8.54 312.11 9.7 310.37 10.86 307.9 10.86Z" opacity="1" transform="matrix(1,0,0,1,0,0)" fill="#000000" class="wordmark-text-0" data-fill-palette-color="primary" id="text-0"/></svg></g></svg></g><g transform="matrix(1,0,0,1,75.54432,72.28851380527752)"><svg viewBox="0 0 244.43135999999998 20.14119728624063" height="20.14119728624063" width="244.43135999999998"><g transform="matrix(1,0,0,1,8,0)"><svg width="228.43135999999998" viewBox="0.05 -34 393.51 34.7" height="20.14119728624063" data-palette-color="#716969"><path d="M12.15 0.2L12.15 0.2Q10.6 0.2 9.8-0.48 9-1.15 9-2.85L9-2.85Q9-4.15 9.43-6.48 9.85-8.8 10.65-11.65L10.65-11.65Q10.25-13.65 9.68-15.83 9.1-18 8.35-19.95L8.35-19.95Q7.4-22.6 6.05-24.4 4.7-26.2 2.85-26.2L2.85-26.2Q2.5-26.2 2.18-26.15 1.85-26.1 1.6-26L1.6-26Q1.1-25.9 0.58-26.7 0.05-27.5 0.05-28.6L0.05-28.6Q0.05-30 1.03-31.08 2-32.15 3.7-32.15L3.7-32.15Q5.8-32.15 7.58-30.78 9.35-29.4 10.73-26.15 12.1-22.9 12.95-17.3L12.95-17.3Q13.85-19.6 15.13-22.18 16.4-24.75 18-27.03 19.6-29.3 21.45-30.73 23.3-32.15 25.35-32.15L25.35-32.15Q26.7-32.15 27.43-31.5 28.15-30.85 28.15-29.7L28.15-29.7Q28.15-28.9 27.83-28 27.5-27.1 26.95-26.45 26.4-25.8 25.8-25.8L25.8-25.8Q25.6-25.8 25.38-25.83 25.15-25.85 24.9-25.95L24.9-25.95Q24.4-26.2 23.75-26.2L23.75-26.2Q22.15-26.2 20.25-24 18.35-21.8 16.5-17.2L16.5-17.2Q14.6-12.35 14.6-7.8L14.6-7.8Q14.6-6.75 14.88-5.73 15.15-4.7 15.9-3.85L15.9-3.85Q16.4-3.1 16.4-2.45L16.4-2.45Q16.4-1.35 15.2-0.58 14 0.2 12.15 0.2ZM31.3 0.65L31.3 0.65Q27.85 0.65 25.77-1.23 23.7-3.1 23.7-6.75L23.7-6.75Q23.7-8.45 24.17-10.05 24.65-11.65 25.45-13.05L25.45-13.05Q24.65-12.55 24.25-12.55L24.25-12.55Q23.65-12.55 23.42-13.23 23.2-13.9 23.2-14.55L23.2-14.55Q23.2-15.7 23.67-16.38 24.15-17.05 24.6-17.4L24.6-17.4Q25.65-18.3 27.9-19.38 30.15-20.45 33.3-20.45L33.3-20.45Q37.6-20.45 39.97-18.05 42.35-15.65 42.35-11.35L42.35-11.35Q42.35-8 40.95-5.28 39.55-2.55 37.07-0.95 34.6 0.65 31.3 0.65ZM32.85-4.45L32.85-4.45Q35.35-4.45 37.07-6.03 38.8-7.6 38.8-10.2L38.8-10.2Q38.8-12.9 37.05-14.05 35.3-15.2 33-15.2L33-15.2Q31.95-15.2 31.1-15 30.25-14.8 29.5-14.5L29.5-14.5Q28.8-13.5 28.25-12.25 27.7-11 27.7-9.5L27.7-9.5Q27.7-7 29.2-5.73 30.7-4.45 32.85-4.45ZM52.45 0.65L52.45 0.65Q49.95 0.65 48.57-0.8 47.2-2.25 47.2-5L47.2-5Q47.2-6.95 47.75-9L47.75-9Q48-9.85 48.15-10.7 48.3-11.55 48.3-12.4L48.3-12.4Q48.3-14.6 46.95-15.25L46.95-15.25Q45.65-15.95 45.65-16.75L45.65-16.75Q45.65-17.55 46.32-18.35 47-19.15 48-19.68 49-20.2 50-20.2L50-20.2Q52.84-20.2 52.84-15.55L52.84-15.55Q52.84-14.05 52.62-12.78 52.4-11.5 52.09-10.35L52.09-10.35Q51.9-9.55 51.77-8.75 51.65-7.95 51.65-7.35L51.65-7.35Q51.65-4.85 54.09-4.85L54.09-4.85Q56.4-4.85 58.4-7.3 60.4-9.75 61.7-14.15L61.7-14.15 61.65-15.1Q61.55-17.6 62.52-18.9 63.5-20.2 65.4-20.2L65.4-20.2Q67.05-20.2 67.05-19.15L67.05-19.15Q67.05-18.8 66.92-18.25 66.8-17.7 66.55-16.95L66.55-16.95Q66.05-15.1 65.7-13.03 65.34-10.95 65.34-9.2L65.34-9.2Q65.34-7.25 65.95-5.98 66.55-4.7 68.2-4.25L68.2-4.25Q68.65-4.2 68.92-3.98 69.2-3.75 69.2-3.05L69.2-3.05Q69.2-1.85 68.2-0.7 67.2 0.45 65.3 0.45L65.3 0.45Q61.65 0.45 61.65-4.7L61.65-4.7Q61.65-5.6 61.8-7.4L61.8-7.4 61.7-7.45Q58.55 0.65 52.45 0.65ZM75.04 0.55L75.04 0.55Q74.24 0.55 73.77 0.28 73.29 0 73.44-0.65L73.44-0.65Q73.99-2.8 74.37-5.03 74.74-7.25 74.74-9.3L74.74-9.3Q74.74-11.95 74.42-13.18 74.09-14.4 73.54-14.88 72.99-15.35 72.19-15.6L72.19-15.6Q71.84-15.75 71.57-16 71.29-16.25 71.29-16.7L71.29-16.7Q71.29-17.4 71.84-18.25 72.39-19.1 73.39-19.73 74.39-20.35 75.69-20.35L75.69-20.35Q77.39-20.35 78.07-19.18 78.74-18 78.74-16.1L78.74-16.1Q79.64-18.1 80.97-19.28 82.29-20.45 84.29-20.45L84.29-20.45Q85.64-20.45 86.54-19.85 87.44-19.25 87.44-17.9L87.44-17.9Q87.44-16.55 86.57-15.38 85.69-14.2 84.79-14.2L84.79-14.2Q84.64-14.2 84.44-14.25 84.24-14.3 84.09-14.5L84.09-14.5Q83.44-15.3 82.49-15.3L82.49-15.3Q81.04-15.3 79.94-13.4 78.84-11.5 78.74-8.15L78.74-8.15Q78.79-6.9 78.82-5.6 78.84-4.3 78.84-3.7L78.84-3.7Q78.84-1.85 77.82-0.65 76.79 0.55 75.04 0.55ZM105.34 0.5L105.34 0.5Q104.74 0.5 104.11 0.3 103.49 0.1 103.06-0.65 102.64-1.4 102.64-2.95L102.64-2.95Q102.64-3.95 102.84-5.58 103.04-7.2 103.39-9.8L103.39-9.8Q103.64-11.45 103.96-14.23 104.29-17 104.29-20.05L104.29-20.05Q104.29-21.4 104.19-22.93 104.09-24.45 103.79-25.7L103.79-25.7Q103.19-25.55 102.89-25.55L102.89-25.55Q102.59-25.55 102.44-25.73 102.29-25.9 102.29-26.4L102.29-26.4Q102.29-27.4 102.51-28.43 102.74-29.45 103.24-30.15L103.24-30.15Q103.74-30.85 104.41-31.15 105.09-31.45 105.84-31.55L105.84-31.55Q107.09-31.7 109.01-31.83 110.94-31.95 113.06-32.05 115.19-32.15 116.94-32.15L116.94-32.15Q119.29-32.15 120.41-32.1 121.54-32.05 122.14-31.95L122.14-31.95Q123.44-31.75 123.44-30.55L123.44-30.55Q123.44-29.7 123.11-29.03 122.79-28.35 122.34-27.8L122.34-27.8Q121.79-27 121.16-26.68 120.54-26.35 119.54-26.45L119.54-26.45Q118.69-26.55 117.21-26.63 115.74-26.7 113.84-26.7L113.84-26.7Q113.04-26.7 111.74-26.65 110.44-26.6 108.99-26.5L108.99-26.5Q108.94-24.8 108.69-22.63 108.44-20.45 108.14-18.2L108.14-18.2Q109.49-18.3 111.39-18.38 113.29-18.45 115.29-18.5 117.29-18.55 118.84-18.55L118.84-18.55Q119.74-18.55 120.14-18.32 120.54-18.1 120.54-17.35L120.54-17.35Q120.54-16.5 120.11-15.53 119.69-14.55 119.01-13.85 118.34-13.15 117.59-13.2L117.59-13.2Q116.34-13.3 114.06-13.35 111.79-13.4 109.29-13.4L109.29-13.4 107.69-13.4Q107.59-12.3 107.51-11.23 107.44-10.15 107.44-9.25L107.44-9.25Q107.44-7.5 107.79-6.18 108.14-4.85 109.14-3.9L109.14-3.9Q109.79-3.25 109.79-2.4L109.79-2.4Q109.79-1.3 108.54-0.4 107.29 0.5 105.34 0.5ZM127.84 0.65L127.84 0.65Q124.84 0.65 123.01-1.23 121.19-3.1 121.19-6.6L121.19-6.6Q121.19-9.1 122.16-11.58 123.14-14.05 124.99-16.05 126.84-18.05 129.44-19.25 132.04-20.45 135.29-20.45L135.29-20.45Q138.29-20.45 140.41-19.43 142.54-18.4 142.54-16.65L142.54-16.65Q142.54-16.2 142.44-15.48 142.34-14.75 142.19-14.3L142.19-14.3Q142.04-13.9 141.76-13.58 141.49-13.25 141.04-13.25L141.04-13.25Q140.84-13.25 140.29-13.4L140.29-13.4Q140.09-12.35 139.99-11.35 139.89-10.35 139.89-9.35L139.89-9.35Q139.89-7.45 140.46-5.98 141.04-4.5 142.74-4.15L142.74-4.15Q143.19-4.05 143.46-3.85 143.74-3.65 143.74-3L143.74-3Q143.74-2.45 143.46-1.6 143.19-0.75 142.41-0.08 141.64 0.6 140.19 0.6L140.19 0.6Q138.24 0.6 137.19-0.83 136.14-2.25 136.14-4.9L136.14-4.9Q134.79-2.45 132.71-0.9 130.64 0.65 127.84 0.65ZM129.44-4.55L129.44-4.55Q131.44-4.55 132.96-5.8 134.49-7.05 135.34-8.95L135.34-8.95Q135.89-10.15 136.19-11.58 136.49-13 136.59-14.4L136.59-14.4Q135.74-14.8 134.64-15.05 133.54-15.3 132.34-15.3L132.34-15.3Q129.29-15.3 127.31-13.5 125.34-11.7 125.34-9L125.34-9Q125.34-7 126.44-5.78 127.54-4.55 129.44-4.55ZM153.43 0.65L153.43 0.65Q151.58 0.65 149.98 0.1 148.38-0.45 147.38-1.45 146.38-2.45 146.38-3.85L146.38-3.85Q146.38-4.6 146.76-5.28 147.13-5.95 147.98-5.95L147.98-5.95Q148.43-5.95 148.93-5.7L148.93-5.7Q149.83-5.2 151.23-4.78 152.63-4.35 154.18-4.35L154.18-4.35Q155.93-4.35 157.28-4.85 158.63-5.35 158.63-6.25L158.63-6.25Q158.63-6.95 157.61-7.25 156.58-7.55 154.18-7.9L154.18-7.9Q152.53-8.2 150.98-8.6 149.43-9 148.43-9.98 147.43-10.95 147.43-12.85L147.43-12.85Q147.43-14.7 148.46-16.43 149.48-18.15 151.53-19.3 153.58-20.45 156.53-20.45L156.53-20.45Q158.08-20.45 159.53-20.1 160.98-19.75 161.93-19.05 162.88-18.35 162.88-17.3L162.88-17.3Q162.88-16.4 162.26-15.65 161.63-14.9 160.81-14.43 159.98-13.95 159.43-13.95L159.43-13.95Q159.03-13.95 158.48-14.5L158.48-14.5Q157.63-15.2 156.61-15.48 155.58-15.75 154.58-15.75L154.58-15.75Q153.08-15.75 152.16-15.3 151.23-14.85 151.23-14.15L151.23-14.15Q151.23-13.5 152.01-13.1 152.78-12.7 153.93-12.53 155.08-12.35 156.13-12.2L156.13-12.2Q159.03-11.8 160.73-10.83 162.43-9.85 162.43-7.4L162.43-7.4Q162.43-5.5 161.36-3.63 160.28-1.75 158.26-0.55 156.23 0.65 153.43 0.65ZM168.78 0.55L168.78 0.55Q168.08 0.55 167.58 0.23 167.08-0.1 167.18-0.65L167.18-0.65Q167.93-4.65 168.46-8.78 168.98-12.9 168.98-17.1L168.98-17.1Q168.98-20.8 168.73-23.8 168.48-26.8 167.13-29.55L167.13-29.55Q166.88-30.1 166.73-30.5 166.58-30.9 166.58-31.25L166.58-31.25Q166.58-32.2 167.71-33.1 168.83-34 170.08-34L170.08-34Q171.83-34 172.48-31.8 173.13-29.6 173.13-25.3L173.13-25.3Q173.13-20.15 172.53-16.32 171.93-12.5 171.48-10.5L171.48-10.5 171.68-10.4Q172.68-13.05 174.11-15.35 175.53-17.65 177.43-19.05 179.33-20.45 181.83-20.45L181.83-20.45Q184.48-20.45 185.86-18.85 187.23-17.25 187.23-14.9L187.23-14.9Q187.23-13.9 187.03-12.98 186.83-12.05 186.58-11.2L186.58-11.2Q186.33-10.4 186.13-9.58 185.93-8.75 185.93-7.9L185.93-7.9Q185.93-6.35 186.68-5.38 187.43-4.4 188.68-4L188.68-4Q189.03-3.9 189.21-3.73 189.38-3.55 189.38-3.1L189.38-3.1Q189.38-2.65 189.08-1.8 188.78-0.95 187.98-0.23 187.18 0.5 185.63 0.5L185.63 0.5Q183.63 0.5 182.53-0.93 181.43-2.35 181.43-4.6L181.43-4.6Q181.43-5.7 181.66-6.85 181.88-8 182.18-9.05L182.18-9.05Q182.43-10.1 182.63-11.03 182.83-11.95 182.83-12.6L182.83-12.6Q182.83-14.9 180.43-14.9L180.43-14.9Q178.43-14.9 176.91-13.48 175.38-12.05 174.31-9.88 173.23-7.7 172.53-5.4L172.53-5.4 172.53-3.7Q172.53-1.85 171.46-0.65 170.38 0.55 168.78 0.55ZM196.78-24.85L196.78-24.85Q195.38-24.9 194.53-25.7 193.68-26.5 193.68-27.95L193.68-27.95Q193.73-29.5 194.73-30.48 195.73-31.45 197.28-31.4L197.28-31.4Q198.73-31.35 199.55-30.55 200.38-29.75 200.33-28.3L200.33-28.3Q200.28-26.8 199.33-25.83 198.38-24.85 196.78-24.85ZM196.83 0.5L196.83 0.5Q195.33 0.5 194.48-0.33 193.63-1.15 193.63-3.15L193.63-3.15Q193.63-4.3 193.85-5.4 194.08-6.5 194.38-7.55L194.38-7.55Q194.73-8.65 194.95-9.8 195.18-10.95 195.18-12.25L195.18-12.25Q195.18-13.15 194.93-13.98 194.68-14.8 193.83-15.2L193.83-15.2Q193.18-15.55 192.7-15.93 192.23-16.3 192.23-16.9L192.23-16.9Q192.23-17.6 192.88-18.4 193.53-19.2 194.6-19.78 195.68-20.35 196.83-20.35L196.83-20.35Q198.08-20.35 198.65-19.7 199.23-19.05 199.43-18.05 199.63-17.05 199.63-16L199.63-16Q199.63-14.4 199.38-12.88 199.13-11.35 198.88-10.05L198.88-10.05Q198.68-9.1 198.58-8.3 198.48-7.5 198.48-6.8L198.48-6.8Q198.48-5.55 199.08-4.93 199.68-4.3 200.78-3.75L200.78-3.75Q201.23-3.5 201.23-3L201.23-3Q201.23-2.6 200.83-1.75 200.43-0.9 199.45-0.2 198.48 0.5 196.83 0.5ZM212.88 0.65L212.88 0.65Q209.43 0.65 207.35-1.23 205.28-3.1 205.28-6.75L205.28-6.75Q205.28-8.45 205.75-10.05 206.23-11.65 207.03-13.05L207.03-13.05Q206.23-12.55 205.83-12.55L205.83-12.55Q205.23-12.55 205-13.23 204.78-13.9 204.78-14.55L204.78-14.55Q204.78-15.7 205.25-16.38 205.73-17.05 206.18-17.4L206.18-17.4Q207.23-18.3 209.48-19.38 211.73-20.45 214.88-20.45L214.88-20.45Q219.18-20.45 221.55-18.05 223.93-15.65 223.93-11.35L223.93-11.35Q223.93-8 222.53-5.28 221.13-2.55 218.65-0.95 216.18 0.65 212.88 0.65ZM214.43-4.45L214.43-4.45Q216.93-4.45 218.65-6.03 220.38-7.6 220.38-10.2L220.38-10.2Q220.38-12.9 218.63-14.05 216.88-15.2 214.58-15.2L214.58-15.2Q213.53-15.2 212.68-15 211.83-14.8 211.08-14.5L211.08-14.5Q210.38-13.5 209.83-12.25 209.28-11 209.28-9.5L209.28-9.5Q209.28-7 210.78-5.73 212.28-4.45 214.43-4.45ZM230.57 0.55L230.57 0.55Q228.77 0.55 228.97-0.65L228.97-0.65Q229.52-2.8 229.9-5.03 230.27-7.25 230.27-9.3L230.27-9.3Q230.27-11.95 229.95-13.18 229.62-14.4 229.07-14.88 228.52-15.35 227.72-15.6L227.72-15.6Q227.37-15.75 227.1-16 226.82-16.25 226.82-16.7L226.82-16.7Q226.82-17.4 227.37-18.25 227.92-19.1 228.95-19.73 229.97-20.35 231.27-20.35L231.27-20.35Q232.97-20.35 233.62-19.18 234.27-18 234.27-16.1L234.27-16.1Q234.27-14.85 234.02-13.3 233.77-11.75 233.52-10.5L233.52-10.5 233.67-10.45Q234.67-13.1 236.1-15.38 237.52-17.65 239.42-19.05 241.32-20.45 243.82-20.45L243.82-20.45Q246.47-20.45 247.87-18.85 249.27-17.25 249.27-14.85L249.27-14.85Q249.27-13.85 249.05-12.95 248.82-12.05 248.57-11.2L248.57-11.2Q248.32-10.4 248.15-9.55 247.97-8.7 247.97-7.85L247.97-7.85Q247.97-5 250.67-4L250.67-4Q251.37-3.7 251.37-3.1L251.37-3.1Q251.37-2.65 251.07-1.8 250.77-0.95 249.97-0.23 249.17 0.5 247.62 0.5L247.62 0.5Q245.62 0.5 244.52-0.93 243.42-2.35 243.42-4.55L243.42-4.55Q243.42-5.8 243.7-7.08 243.97-8.35 244.27-9.45L244.27-9.45Q244.47-10.3 244.65-11.13 244.82-11.95 244.82-12.6L244.82-12.6Q244.82-14.9 242.42-14.9L242.42-14.9Q240.37-14.9 238.82-13.38 237.27-11.85 236.17-9.55 235.07-7.25 234.37-4.9L234.37-4.9 234.37-3.7Q234.37-1.85 233.35-0.65 232.32 0.55 230.57 0.55ZM271.77 0.55L271.77 0.55Q269.82 0.55 269.82-0.85L269.82-0.85Q269.82-1.25 269.97-1.9L269.97-1.9Q271.02-7.15 271.47-12.55L271.47-12.55Q270.72-12.35 270.27-12.35L270.27-12.35Q269.77-12.35 269.77-13.25L269.77-13.25Q269.77-14.45 270.37-15.95 270.97-17.45 271.77-18.15L271.77-18.15Q271.77-20.8 271.64-22.58 271.52-24.35 271.17-25.7 270.82-27.05 270.07-28.3L270.07-28.3Q269.62-29 269.62-29.35L269.62-29.35Q269.62-30 270.29-30.63 270.97-31.25 271.94-31.7 272.92-32.15 273.77-32.15L273.77-32.15Q275.37-32.15 275.89-30.73 276.42-29.3 276.42-27L276.42-27Q276.37-25.9 276.22-23.85 276.07-21.8 275.77-18.8L275.77-18.8Q278.92-19 281.92-19.1 284.92-19.2 287.67-19.2L287.67-19.2 291.37-19.2 291.37-20.6Q291.37-24.95 290.22-28.25L290.22-28.25Q289.87-29.1 289.87-29.45L289.87-29.45Q289.87-30.45 291.14-31.3 292.42-32.15 293.82-32.15L293.82-32.15Q295.37-32.15 295.89-31.03 296.42-29.9 296.42-27.85L296.42-27.85Q296.42-26.5 296.17-24.2 295.92-21.9 295.47-18.6L295.47-18.6Q295.02-15.1 294.77-12.83 294.52-10.55 294.52-8.8L294.52-8.8Q294.52-5.5 296.22-3.9L296.22-3.9Q296.87-3.15 296.87-2.4L296.87-2.4Q296.87-1.25 295.52-0.38 294.17 0.5 292.27 0.5L292.27 0.5Q291.07 0.5 290.37-0.15 289.67-0.8 289.67-2.95L289.67-2.95Q289.67-3.7 289.82-5.2 289.97-6.7 290.32-9L290.32-9Q290.52-10.45 290.69-11.8 290.87-13.15 290.97-14.35L290.97-14.35Q290.62-13.9 290.29-13.65 289.97-13.4 289.42-13.45L289.42-13.45Q287.62-13.55 285.84-13.63 284.07-13.7 282.32-13.7L282.32-13.7Q278.67-13.7 275.37-13.25L275.37-13.25Q275.32-12.9 275.29-12.08 275.27-11.25 275.27-10.7L275.27-10.7Q275.27-8.55 275.47-6.25 275.67-3.95 275.87-2.15L275.87-2.15Q276.02-0.9 274.67-0.18 273.32 0.55 271.77 0.55ZM307.12 0.65L307.12 0.65Q304.12 0.65 302.29-1.23 300.47-3.1 300.47-6.6L300.47-6.6Q300.47-9.1 301.44-11.58 302.42-14.05 304.27-16.05 306.12-18.05 308.72-19.25 311.32-20.45 314.57-20.45L314.57-20.45Q317.57-20.45 319.69-19.43 321.82-18.4 321.82-16.65L321.82-16.65Q321.82-16.2 321.72-15.48 321.62-14.75 321.47-14.3L321.47-14.3Q321.32-13.9 321.04-13.58 320.77-13.25 320.32-13.25L320.32-13.25Q320.12-13.25 319.57-13.4L319.57-13.4Q319.37-12.35 319.27-11.35 319.17-10.35 319.17-9.35L319.17-9.35Q319.17-7.45 319.74-5.98 320.32-4.5 322.02-4.15L322.02-4.15Q322.47-4.05 322.74-3.85 323.02-3.65 323.02-3L323.02-3Q323.02-2.45 322.74-1.6 322.47-0.75 321.69-0.08 320.92 0.6 319.47 0.6L319.47 0.6Q317.52 0.6 316.47-0.83 315.42-2.25 315.42-4.9L315.42-4.9Q314.07-2.45 311.99-0.9 309.92 0.65 307.12 0.65ZM308.72-4.55L308.72-4.55Q310.72-4.55 312.24-5.8 313.77-7.05 314.62-8.95L314.62-8.95Q315.17-10.15 315.47-11.58 315.77-13 315.87-14.4L315.87-14.4Q315.02-14.8 313.92-15.05 312.82-15.3 311.62-15.3L311.62-15.3Q308.57-15.3 306.59-13.5 304.62-11.7 304.62-9L304.62-9Q304.62-7 305.72-5.78 306.82-4.55 308.72-4.55ZM333.16 0.7L333.16 0.7Q331.81 0.7 330.84-0.13 329.86-0.95 329.66-3.2L329.66-3.2Q329.56-4.9 329.24-6.95 328.91-9 328.41-10.85 327.91-12.7 327.26-13.75L327.26-13.75Q326.91-14.3 326.49-14.58 326.06-14.85 325.21-14.95L325.21-14.95Q324.66-15 324.46-15.3 324.26-15.6 324.26-16.25L324.26-16.25Q324.26-18.3 325.39-19.28 326.51-20.25 327.96-20.25L327.96-20.25Q329.46-20.25 330.46-19.28 331.46-18.3 332.01-16.7 332.56-15.1 332.79-13.18 333.01-11.25 333.01-9.3L333.01-9.3Q333.01-8.5 332.99-7.63 332.96-6.75 332.96-6.15L332.96-6.15Q332.96-5.6 333.19-5.3 333.41-5 334.06-5L334.06-5Q334.86-5 335.91-5.48 336.96-5.95 337.99-6.85 339.01-7.75 339.69-8.97 340.36-10.2 340.36-11.7L340.36-11.7Q340.36-12.55 340.09-13.5 339.81-14.45 339.21-15.1L339.21-15.1Q338.61-15.75 338.34-16.13 338.06-16.5 338.06-17L338.06-17Q338.06-17.9 338.89-18.65 339.71-19.4 340.84-19.85 341.96-20.3 342.81-20.3L342.81-20.3Q344.26-20.3 344.66-19.1 345.06-17.9 345.06-16.45L345.06-16.45Q345.06-13.7 344.06-10.7 343.06-7.7 341.36-5.1 339.66-2.5 337.54-0.9 335.41 0.7 333.16 0.7ZM356.06 0.65L356.06 0.65Q352.26 0.65 350.14-1.53 348.01-3.7 348.01-7.6L348.01-7.6Q348.01-11.15 349.56-14.05 351.11-16.95 353.74-18.68 356.36-20.4 359.51-20.4L359.51-20.4Q362.51-20.4 364.31-18.93 366.11-17.45 366.11-15L366.11-15Q366.11-13.05 364.91-11.4 363.71-9.75 361.71-8.78 359.71-7.8 357.26-7.8L357.26-7.8Q354.26-7.8 352.36-9.15L352.36-9.15Q352.41-6.85 353.94-5.45 355.46-4.05 357.86-4.05L357.86-4.05Q359.31-4.05 360.84-4.58 362.36-5.1 363.46-6L363.46-6Q364.16-6.6 364.76-6.6L364.76-6.6Q365.26-6.6 365.59-6.28 365.91-5.95 365.91-5.45L365.91-5.45Q365.91-4.35 364.01-2.55L364.01-2.55Q360.66 0.65 356.06 0.65ZM356.81-11.1L356.81-11.1Q358.61-11.1 359.81-11.85 361.01-12.6 361.01-13.75L361.01-13.75Q361.01-14.7 360.21-15.23 359.41-15.75 358.01-15.75L358.01-15.75Q356.16-15.75 354.79-14.78 353.41-13.8 352.81-12.05L352.81-12.05Q353.51-11.6 354.61-11.35 355.71-11.1 356.81-11.1ZM372.76 0.55L372.76 0.55Q370.96 0.55 371.16-0.65L371.16-0.65Q371.71-2.8 372.08-5.03 372.46-7.25 372.46-9.3L372.46-9.3Q372.46-11.95 372.13-13.18 371.81-14.4 371.26-14.88 370.71-15.35 369.91-15.6L369.91-15.6Q369.56-15.75 369.28-16 369.01-16.25 369.01-16.7L369.01-16.7Q369.01-17.4 369.56-18.25 370.11-19.1 371.13-19.73 372.16-20.35 373.46-20.35L373.46-20.35Q375.16-20.35 375.81-19.18 376.46-18 376.46-16.1L376.46-16.1Q376.46-14.85 376.21-13.3 375.96-11.75 375.71-10.5L375.71-10.5 375.86-10.45Q376.86-13.1 378.28-15.38 379.71-17.65 381.61-19.05 383.51-20.45 386.01-20.45L386.01-20.45Q388.66-20.45 390.06-18.85 391.46-17.25 391.46-14.85L391.46-14.85Q391.46-13.85 391.23-12.95 391.01-12.05 390.76-11.2L390.76-11.2Q390.51-10.4 390.33-9.55 390.16-8.7 390.16-7.85L390.16-7.85Q390.16-5 392.86-4L392.86-4Q393.56-3.7 393.56-3.1L393.56-3.1Q393.56-2.65 393.26-1.8 392.96-0.95 392.16-0.23 391.36 0.5 389.81 0.5L389.81 0.5Q387.81 0.5 386.71-0.93 385.61-2.35 385.61-4.55L385.61-4.55Q385.61-5.8 385.88-7.08 386.16-8.35 386.46-9.45L386.46-9.45Q386.66-10.3 386.83-11.13 387.01-11.95 387.01-12.6L387.01-12.6Q387.01-14.9 384.61-14.9L384.61-14.9Q382.56-14.9 381.01-13.38 379.46-11.85 378.36-9.55 377.26-7.25 376.56-4.9L376.56-4.9 376.56-3.7Q376.56-1.85 375.53-0.65 374.51 0.55 372.76 0.55Z" opacity="1" transform="matrix(1,0,0,1,0,0)" fill="#000000" class="slogan-text-1" data-fill-palette-color="secondary" id="text-1"/></svg></g></svg></g></svg></g></svg></g><g transform="matrix(1,0,0,1,83.96565673502013,0)"><svg viewBox="0 0 227.58868652995972 227.58868652995972" height="227.58868652995972" width="227.58868652995972"><g><svg/></g><g id="icon-0"><svg viewBox="0 0 227.58868652995972 227.58868652995972" height="227.58868652995972" width="227.58868652995972"><g><path d="M0 113.794c0-62.847 50.947-113.794 113.794-113.794 62.847 0 113.794 50.947 113.795 113.794 0 62.847-50.947 113.794-113.795 113.795-62.847 0-113.794-50.947-113.794-113.795zM113.794 222.315c59.934 0 108.52-48.586 108.521-108.521 0-59.934-48.586-108.52-108.521-108.52-59.934 0-108.52 48.586-108.52 108.52 0 59.934 48.586 108.52 108.52 108.521z" data-fill-palette-color="tertiary" fill="#000000" stroke="transparent"/></g><g transform="matrix(1,0,0,1,45.614185476290345,75.00249711749105)"><svg viewBox="0 0 136.36031557737903 77.58369229497762" height="77.58369229497762" width="136.36031557737903"><g><svg xmlns="http://www.w3.org/2000/svg" xmlns:xlink="http://www.w3.org/1999/xlink" version="1.1" x="0" y="0" viewBox="14.65821161558682 51.3 170.77742932706653 97.16568542494925" style="enable-background:new 0 0 200 200;" xml:space="preserve" height="77.58369229497762" width="136.36031557737903" class="icon-dxe-0" data-fill-palette-color="accent" id="dxe-0" fill="#000000"><g fill="#000000" data-fill-palette-color="accent"><path d="M174.8 125.9V93.6C177.5 93.5 180.1 93.4 182.8 93.3 184.2 93.2 185 92.9 185 92.5 186.4 91.3 184.3 86.5 180.5 81.4 176.4 76.1 172.3 70.6 167.5 65.5L165.6 63.6C164.9 63 164.5 62.4 163.4 61.7 162.9 61.3 162.3 61 161.8 60.7 161.4 58.8 161.1 57 160.8 55.2 160.7 54.8 160.3 54.5 160 54.5 160 52.7 158.4 51.3 156.3 51.3H147.2C146.1 51.4 145.4 51.6 144.7 52.3 144.1 52.9 143.7 53.7 143.5 54.7L143.2 56.3C143.1 56.7 143 57.1 143 57.4 142.9 58 142.9 58.5 142.8 59 140.7 59.2 138.6 59.4 136.6 59.5 135.8 59.5 135 59.6 134.3 59.6 133.9 59.6 133.6 59.6 133.3 59.5H119.1C118.3 59.6 117.5 59.6 116.7 59.6 115.1 59.7 113.6 59.7 111.8 59.7 111.4 59.7 110.8 59.7 110.1 59.8 109.3 59.9 108.5 60.2 107.8 60.6S106.7 61.4 106.3 61.7L105.3 62.6C101 66.5 97.4 70.9 93.9 75.3 92.2 77.5 90.5 79.7 88.9 81.9L86.4 85.2 83.8 88C83.4 89 83 89.9 82.6 90.9 82.5 91.7 82.8 92.9 83.4 93.7 84.1 94.6 84.7 94.9 85.6 95.3 86.6 95.7 88.1 95.5 89.4 95.6H96.1C95.9 100.2 95.8 104.8 95.6 109.4L95.3 121.5C93.8 120.9 91.7 120.5 89.4 120.5H81.7C81 120.5 80.2 120.4 79.3 120.4 77.6 120.3 75.8 120.2 73.9 120.2H72.4C71.9 120.2 71.5 120.3 70.7 120.4 69.9 120.6 69 120.7 68.3 121.1 67.5 121.4 67 122 66.4 122.6 66.1 123.2 65.9 123.7 65.7 124.3 65.6 124.9 65.5 125.6 65.4 126.2 65.3 127 65.3 127.6 65.3 128.4 65.2 129.8 65.2 131.1 65.2 132.5 65.2 133.8 65.2 135.1 65.3 136.3 64.6 136.3 63.9 136.4 63.1 136.5 62.1 136.6 61.1 136.8 59.8 137.4 58.4 138.1 57.5 139.1 57 139.7 56.4 140.4 56 140.9 55.7 141.3S55.1 141.9 54.9 142C54.6 142.1 54.2 142.3 53.8 142.4S52.9 142.5 52.5 142.4C52.3 142.4 52.1 142.3 51.8 142.3L51.4 142.2 51.2 142 50.5 141.3 49.4 140.2C48.9 139.7 48.4 139.1 47.8 138.8L46.4 138.3C45.4 138.3 44.5 138.4 43.6 138.8S41.9 139.9 41.1 140.6L40 141.7C39.7 142 39.5 142.2 39.3 142.3S39 142.5 38.8 142.5C38.5 142.6 38.2 142.6 37.9 142.6H36.9C36.7 142.6 36.6 142.5 36.4 142.5L36.2 142.4H36C35.9 142.3 35.7 142.2 35.6 142 35.2 141.7 35 141.4 34.5 141L33.5 140.1 33 139.6 32.4 139.3C32 139.1 31.7 139.1 31.4 138.8 31 138.8 30.6 138.8 30.2 138.9 29.4 139.1 28.6 139.4 27.9 139.9 27.5 140.2 27.2 140.4 26.9 140.7 26.7 140.8 26.6 141 26.5 141.1L26.2 141.4C25.5 142.1 25 142.7 24.5 143 24.1 143.3 23.3 143.5 22.6 143.6S21.1 143.6 20.3 143.4C18.8 142.9 17.3 141.8 16.2 140.3 15.8 139.7 14.4 140.2 14.7 141.1 15.4 143.1 16.9 145 19 146.2 20 146.8 21.2 147.2 22.5 147.3 23.1 147.4 23.8 147.4 24.4 147.3 25 147.3 25.8 147.1 26.4 146.8 27.7 146.3 28.7 145.5 29.5 144.8L29.8 144.6C29.9 144.5 29.9 144.6 29.9 144.5L30.1 144.4C30.2 144.4 30.3 144.3 30.4 144.4H30.5L30.6 144.5 30.7 144.7C30.9 145 31.4 145.4 31.7 145.8 31.9 146 32.1 146.2 32.4 146.4 32.8 146.7 33.2 147 33.6 147.2 33.8 147.3 34.1 147.4 34.3 147.5L34.8 147.7C35.1 147.8 35.5 147.9 35.8 148 36.5 148.2 37.2 148.2 37.9 148.3 38.6 148.3 39.3 148.3 40.1 148.2 40.9 148 41.8 147.7 42.5 147.3S43.8 146.5 44.3 146C44.6 145.8 44.8 145.6 45 145.4L45.5 144.9 46 145.4 46.9 146.3C47.1 146.5 47.2 146.6 47.6 146.9L48.5 147.5C49.3 147.9 49.7 148 50.2 148.1L51.7 148.4C52.7 148.5 53.8 148.5 54.8 148.3 55.9 148.1 56.8 147.9 57.9 147.3S59.9 145.9 60.6 145.2C61.2 144.5 61.7 143.8 62.1 143.4 62.5 142.9 62.7 142.8 62.6 142.8 62.8 142.7 63.4 142.5 64 142.5 64.6 142.4 65.3 142.4 66 142.4 66.3 142.4 66.6 142.3 66.9 142.2 67.5 142.6 68.1 143.1 68.9 143.2S70.5 143.4 71.4 143.4C72.4 143.4 72.7 143.3 73.2 143.3L74.5 143.2 75.7 143.1H89.8C92.7 143.1 95.7 143.1 98.6 143 99 143.1 99.5 143.1 99.9 143.2H100.9C102.2 143.2 103.4 143.2 104.6 143.1 105.6 143.1 106.5 143 107.5 142.9 110.8 142.9 114.1 142.8 117.4 142.8L125.2 142.9C134.4 143 143.6 143 152.8 143H164.8L167.2 143.2H168.6C169 143.2 170 143.1 170.7 143 172 142.7 173.1 142 174 141.1 177.2 141 180.4 140.8 183.5 140.7 185.5 140.6 185.5 139.1 183.5 139 180.7 138.9 177.9 138.8 175.1 138.6 175.2 138.2 175.2 137.8 175.2 137.4V135.3C175.1 134.1 175 133 174.9 132V125.9zM99.6 136.8V136.2C99.6 135 99.6 133.8 99.7 132.5L99.9 128.7 100 126.7V124.6C99.9 119.5 99.7 114.3 99.6 109.2 99.5 104.6 99.3 100 99.1 95.4H100.5L117 95.1C134.1 94.8 151.3 94.3 168.3 93.8V131.6C168.3 132 168.3 132.3 168.4 132.6 168.5 133.8 168.6 134.8 168.7 135.8V136.9H167.4L165 136.7H152.7C143.5 136.7 134.3 136.7 125.1 136.8L117.3 136.9C111.4 136.9 105.5 136.8 99.6 136.8M91.2 89.5H90.8C90.7 89.5 90.7 89.4 90.7 89.4L90.8 89.3 91.1 88.9 93.6 85.6 98.6 79.1C102 74.9 105.4 70.8 109.3 67.2 109.9 66.7 110.6 66.1 110.7 66H111.5C113.1 66 114.9 66 116.7 65.9 117.6 65.9 118.4 65.8 119.3 65.8H132.6C133.1 65.8 133.6 65.9 134.1 65.9 135.1 65.9 136 65.9 136.8 65.8 138.6 65.7 140.4 65.5 142.2 65.4 142.1 67.1 142.1 68.7 142.1 70.4 142.1 71.3 142.1 72.2 142.2 73.2 142.2 73.7 142.3 74.2 142.3 74.7 142.3 74.9 142.4 75.4 142.5 75.8L142.8 77.1C143.1 77.8 143.5 78.6 144 79.2 144.6 79.7 145.2 80.2 146 80.4 146.4 80.5 146.8 80.5 147.2 80.6L148.5 80.7H150.1C152 80.6 153.8 80.3 155.4 80.1L156 80H158.6C159.4 80 160.1 79.8 160.7 79.4S161.7 78.4 162 77.7 162.5 76.1 162.6 75.6L162.8 74.7 162.9 73.9C163.1 72.9 163.1 71.9 163.1 71V70.3C167.5 74.9 171.4 80.1 175.4 85.3 177.5 88.1 179.8 90.3 181.7 91.6 160.2 90.8 138.7 90.2 117.1 89.8L100.6 89.5 92.4 89.4zM158.7 65.8C158.6 67.5 158.5 69.2 158.3 70.7 158.2 71.5 158 72.2 157.8 72.9L157.7 73.4 157.5 73.8C157.4 74.1 157.3 74.1 157.3 74.2S157.2 74.3 157.1 74.3 156.9 74.3 156.9 74.2H154.8C153 74.3 151.3 74.4 149.7 74.4H148.7V74.1C148.7 73.7 148.6 73.4 148.6 73 148.6 72.2 148.5 71.4 148.5 70.6 148.5 68.6 148.6 66.5 148.7 64.4 148.8 62.4 149 60.2 149.2 58.4L149.3 57.9H156.1C157.2 57.9 158.2 57.5 158.8 56.8 158.8 59.9 158.8 62.9 158.7 65.8M76.7 136.7H75.2L73.8 136.8 72.5 136.9C72.1 136.9 71.5 137 71.7 137L71.6 135.9C71.5 134.7 71.5 133.4 71.5 132.1S71.5 129.6 71.6 128.3C71.6 127.7 71.7 127 71.7 126.5 71.8 126.5 72.3 126.4 72.6 126.4H73.7C75.3 126.4 76.9 126.5 78.6 126.6 79 126.6 79.5 126.7 79.9 126.7V130.2C79.9 132.4 80.3 134.5 81 136.6H76.7zM85.5 136.7C86.2 134.6 86.6 132.4 86.6 130.3V126.9H89.3C91.6 126.9 93.6 126.5 95.1 125.9V126.5L94.9 128.4 94.5 132.3C94.4 133.6 94.3 134.9 94.3 136.3V136.8H85.5z" fill="#000000" data-fill-palette-color="accent"/><path d="M128.1 123.5C128.4 123.5 128.6 123.3 128.7 122.8 129.1 119.8 129.6 116.8 130 113.7 130.2 112.2 130.3 110.6 130.4 109 130.4 108.2 130.4 107.4 130.3 106.5 130.2 106 130.2 105.7 130 105S129.5 103.8 129.1 103.3C128.5 103 127.9 102.8 127.2 102.6 126.7 102.5 126.3 102.4 125.9 102.4L123.5 102.1 118.7 101.8C117.1 101.8 115.5 101.7 113.9 101.8 113.1 101.8 112.3 101.9 111.4 101.9 111.2 101.9 111 101.9 110.8 102H110.4C110.2 102 110 102 109.8 102.1 109.1 102.3 108.4 102.5 107.8 102.9 107.5 103.3 107.1 103.7 107 104.3 106.9 104.6 106.9 104.9 106.8 105.1 106.8 105.4 106.7 105.8 106.7 105.9 106.6 106.5 106.6 107.2 106.5 107.8 106.4 109 106.4 110.2 106.4 111.4 106.4 113.7 106.4 116 106.5 118.3 106.5 119.5 106.6 120.6 106.7 121.8 106.7 122 106.8 122.7 106.9 123.2S107.2 124.2 107.5 124.6C107.8 125.1 108.3 125.2 108.7 125.5 109.2 125.7 109.7 125.8 110.3 125.8 110.9 125.9 111.1 125.9 111.5 125.9H112.4C113 125.9 113.6 125.9 114.2 125.8 115.4 125.7 116.5 125.6 117.6 125.5L118.4 125.4H124.2C126.4 125.7 128.1 124.7 128.1 123.5M111.1 121.8V121.5C111 120.5 110.9 119.4 110.9 118.3 110.8 116.1 110.8 113.9 110.8 111.6 110.8 110.4 110.9 109.3 110.9 108.1 110.9 107.5 111 107 111 106.4V106.3H111.2C111.4 106.3 111.5 106.3 111.7 106.2 112.4 106.1 113.2 106.1 114 106S115.6 105.9 116.5 105.9V112.3C116.5 115.3 116.9 118.4 117.6 121.4H117.2L113.9 121.7C113.4 121.7 112.8 121.8 112.3 121.8zM124.3 121.3H119.8C120.5 118.3 120.9 115.3 120.9 112.2V105.7H123.4C124.2 105.7 124.9 105.7 125.7 105.8 126.1 105.8 126.5 105.9 126.7 105.9H127C127.2 105.8 127.5 107.6 127.6 109 127.7 110.5 127.7 112 127.7 113.5 127.7 116.4 127.6 119.4 127.6 122.4 126.9 121.8 125.7 121.3 124.3 121.3M118.7 123.5" fill="#000000" data-fill-palette-color="accent"/><path d="M138.4 121.9C138.4 122.1 138.5 122.8 138.6 123.3S138.9 124.3 139.2 124.7C139.5 125.2 140 125.3 140.4 125.6 140.9 125.8 141.4 125.9 142 125.9 142.6 126 142.8 126 143.2 126H144.1C144.7 126 145.3 126 145.9 125.9 147.1 125.8 148.2 125.7 149.3 125.6L150.1 125.5H155.9C158.1 125.5 159.8 124.5 159.8 123.3 160.1 123.3 160.3 123.1 160.4 122.6 160.8 119.6 161.3 116.6 161.7 113.5 161.9 112 162 110.4 162.1 108.8 162.1 108 162.1 107.2 162 106.3 161.9 105.8 161.9 105.5 161.7 104.8S161.2 103.6 160.8 103.1C160.2 102.8 159.6 102.6 158.9 102.4 158.4 102.3 158 102.2 157.6 102.2L155.2 101.9 150.4 101.6C148.8 101.6 147.2 101.5 145.6 101.6 144.8 101.6 144 101.7 143.1 101.7 142.9 101.7 142.7 101.7 142.5 101.8H142.1C141.9 101.8 141.7 101.8 141.5 101.9 140.8 102.1 140.1 102.3 139.5 102.7 139.2 103.1 138.8 103.5 138.7 104.1 138.6 104.4 138.6 104.7 138.5 104.9 138.5 105.2 138.4 105.6 138.4 105.7 138.3 106.3 138.3 107 138.2 107.6 138.1 108.8 138.1 110 138.1 111.2 138.1 113.5 138.1 115.8 138.2 118.1 138.3 119.5 138.3 120.7 138.4 121.9M142.5 111.6C142.5 110.4 142.6 109.3 142.6 108.1 142.6 107.5 142.7 107 142.7 106.4V106.3H142.9C143.1 106.3 143.2 106.3 143.4 106.2 144.1 106.1 144.9 106.1 145.7 106S147.3 105.9 148.2 105.9V112.3C148.2 115.3 148.6 118.4 149.3 121.4H148.9L145.6 121.7C145.1 121.7 144.5 121.8 144 121.8H142.7V121.5C142.6 120.5 142.5 119.4 142.5 118.3 142.5 116 142.4 113.8 142.5 111.6M156 121.3H151.5C152.2 118.3 152.6 115.3 152.6 112.2V105.7H155.1C155.9 105.7 156.6 105.7 157.4 105.8 157.8 105.8 158.2 105.9 158.4 105.9H158.7C158.9 105.8 159.2 107.6 159.3 109 159.4 110.5 159.4 112 159.4 113.5 159.4 116.4 159.3 119.4 159.3 122.4 158.6 121.8 157.4 121.3 156 121.3" fill="#000000" data-fill-palette-color="accent"/><path d="M24.3 84.5C26.1 87.2 28.8 89.2 31.6 90.3 34.5 91.5 37.6 91.8 40.6 91.5S46.6 90.1 49.2 88.2 53.7 83.5 54.6 80.5C55 79.1 54.9 77.6 54.3 76.7 53.8 75.7 53 75.2 52.1 75.2S50.4 75.7 49.7 76.3C49.1 76.9 48.6 77.7 48.3 78.5 47.7 80.3 46.7 81.8 45.2 82.9S41.8 84.7 39.8 84.9C35.8 85.4 31.6 83.7 29.6 80.7 28.8 79.5 28.2 78 28 76.4S27.9 73.1 28.3 71.6 29.5 68.8 30.7 67.7C31.8 66.6 33.3 65.7 34.9 65.2 38.1 64.1 42 64.2 45.2 65.8 46.8 66.6 48.2 67.7 49.2 69.2S50.9 72.5 51.2 74.5C51.3 75 51.7 75.3 52.1 75.3S52.9 75 52.9 74.4C53 72.2 52.6 70 51.7 67.9 50.7 65.8 49.1 64 47.2 62.6S43 60.4 40.7 60 35.9 59.6 33.6 60.2C31.2 60.8 28.9 61.8 27 63.5 25 65.2 23.5 67.4 22.6 69.8 21.7 72.3 21.5 74.8 21.8 77.3 22 79.7 22.8 82.3 24.3 84.5" fill="#000000" data-fill-palette-color="accent"/></g></svg></g></svg></g></svg></g></svg></g><g/></svg></g><defs/></svg>